<svg width="25" height="25" viewBox="0 0 25 25" fill="none" xmlns="http://www.w3.org/2000/svg">
<path d="M24.1379 6.1392e-08C24.004 -5.04427e-05 23.872 0.0310601 23.7522 0.0909075L17.2205 3.35767L9.83456 0.0745441C9.82249 0.0693927 9.80871 0.0684836 9.79578 0.0633322C9.76254 0.0509082 9.72855 0.0405549 9.69406 0.0323227C9.65977 0.0230804 9.62492 0.0158584 9.58977 0.0107574C9.51977 0.00499997 9.44942 0.00499997 9.37947 0.0107574C9.34432 0.0158584 9.30947 0.0230804 9.27518 0.0323227C9.24069 0.0405549 9.2067 0.0509082 9.17346 0.0633322C9.16053 0.0684836 9.14675 0.0693422 9.13468 0.0745441L1.37725 3.52231C1.06584 3.66059 0.865184 3.96937 0.865234 4.31007V23.2727C0.865386 23.5643 1.01291 23.8361 1.2574 23.995C1.50194 24.1542 1.81037 24.1788 2.07708 24.0605L9.48457 20.7679L16.8921 24.0605C16.905 24.0657 16.9188 24.0605 16.9317 24.0683C17.1404 24.1616 17.3799 24.1563 17.5842 24.0536C17.598 24.0476 17.6135 24.0536 17.6272 24.0442L24.5227 20.5964C24.8149 20.4504 24.9995 20.1516 24.9994 19.8249V0.862358C24.9997 0.386306 24.6139 0.000202078 24.1379 6.1392e-08ZM8.62267 19.2647L2.58909 21.9462V4.87036L8.62267 2.18885V19.2647ZM16.3801 21.9462L10.3465 19.2647V2.18885L16.3801 4.87031V21.9462ZM23.2756 19.2923L18.104 21.8781V4.84274L23.2756 2.25693V19.2923Z" fill="#868889"/>
</svg>
